<svg width="171" height="45" viewBox="0 0 171 45" fill="none" xmlns="http://www.w3.org/2000/svg">
<path d="M35.1551 41.6386C33.8511 41.6386 32.8292 41.3404 31.9829 40.535L32.7387 39.7975C33.3508 40.4304 34.1811 40.6814 35.1391 40.6814C36.4165 40.6814 37.1989 40.2369 37.1989 39.3478C37.1989 38.6783 36.8104 38.307 35.9109 38.2285L34.6388 38.1187C33.1326 37.9932 32.3342 37.3237 32.3342 36.0789C32.3342 34.6825 33.5317 33.8561 35.1817 33.8614C36.2781 33.8614 37.2681 34.1281 37.96 34.6825L37.2202 35.4042C36.6667 34.9858 35.9641 34.7975 35.1657 34.7975C34.0321 34.7975 33.4359 35.2735 33.4306 36.0475C33.4306 36.6961 33.8085 37.0831 34.7825 37.1668L36.0227 37.2766C37.3746 37.4021 38.3007 37.9147 38.2953 39.3373C38.2953 40.8017 37.018 41.649 35.1498 41.6438L35.1551 41.6386Z" fill="#708E41"/>
<path d="M42.4466 41.5595C41.0946 41.5595 40.4826 40.6913 40.4879 39.5302L40.5092 30.5605H41.6429L41.6216 39.4884C41.6216 40.231 41.8664 40.6024 42.6541 40.6024H43.2715V41.5595H42.4519H42.4466Z" fill="#708E41"/>
<path d="M45.8901 38.0663C45.8795 39.7347 46.6832 40.6918 48.1628 40.697C49.057 40.697 49.5733 40.4355 50.1907 39.8393L50.9624 40.5035C50.1747 41.2723 49.4509 41.6698 48.1309 41.6698C46.0871 41.6698 44.7511 40.4617 44.7618 37.7734C44.7618 35.3205 45.9806 33.8822 47.9446 33.8926C49.9405 33.8926 51.1115 35.3205 51.1062 37.5694V38.082L45.8901 38.0715V38.0663ZM49.7383 35.9742C49.4455 35.2786 48.7536 34.8341 47.9393 34.8288C47.125 34.8288 46.4277 35.2734 46.1297 35.969C45.9593 36.3874 45.9274 36.6175 45.8901 37.2347L49.9725 37.2451C49.9405 36.628 49.9139 36.3926 49.7383 35.9742Z" fill="#708E41"/>
<path d="M54.2094 38.0819C54.2094 39.7503 55.0025 40.7074 56.4821 40.7126C57.3763 40.7126 57.8979 40.4511 58.51 39.8496L59.2817 40.5191C58.494 41.2879 57.7702 41.6854 56.4502 41.6854C54.4064 41.6854 53.0757 40.472 53.0811 37.789C53.0917 35.3308 54.2946 33.903 56.2639 33.9082C58.2598 33.9082 59.4308 35.336 59.4308 37.5902V38.0975L54.2094 38.0871V38.0819ZM58.0682 35.9898C57.7702 35.2942 57.0782 34.8444 56.2639 34.8444C55.4496 34.8444 54.7576 35.289 54.4596 35.9846C54.2893 36.403 54.252 36.6331 54.2201 37.2503L58.3024 37.2607C58.2758 36.6436 58.2439 36.4134 58.0682 35.995V35.9898Z" fill="#708E41"/>
<path d="M67.0203 41.0414C66.6104 41.4441 65.9185 41.7004 65.1361 41.7004C64.2845 41.7004 63.582 41.4964 62.9539 40.7067L62.9433 45.0006H61.8096L61.8309 34.0069H62.9645V34.9012C63.5926 34.101 64.3005 33.918 65.1521 33.918C65.9345 33.918 66.6264 34.1847 67.0362 34.5874C67.8133 35.3615 67.9677 36.6272 67.9677 37.8144C67.9677 39.0069 67.8027 40.2673 67.0149 41.0362L67.0203 41.0414ZM64.9126 34.9065C63.2307 34.9065 62.9645 36.3238 62.9645 37.804C62.9592 39.2893 63.22 40.7067 64.9019 40.7119C66.5838 40.7119 66.8393 39.2945 66.8446 37.8144C66.8446 36.3343 66.5998 34.9117 64.9126 34.9065Z" fill="#708E41"/>
<path d="M79.2513 40.8752C78.7191 41.3982 77.9846 41.733 77.0372 41.733C76.0951 41.733 75.3553 41.3878 74.823 40.8648C74.0406 40.0802 73.8916 39.0081 73.8916 37.8365C73.8916 36.665 74.0566 35.598 74.839 34.8135C75.3766 34.2905 76.1217 33.9558 77.0585 33.961C78.0059 33.961 78.7404 34.301 79.2673 34.8292C80.055 35.6189 80.2094 36.6859 80.2094 37.8574C80.2094 39.029 80.0444 40.0959 79.2513 40.8805V40.8752ZM78.4689 35.4987C78.107 35.143 77.6067 34.939 77.0585 34.939C76.5049 34.939 76.0206 35.1378 75.6587 35.4882C75.0945 36.0426 75.0306 36.984 75.0253 37.8365C75.0253 38.6838 75.0838 39.6252 75.6533 40.1796C76.0099 40.5353 76.4996 40.7392 77.0531 40.7392C77.6067 40.7392 78.107 40.5405 78.4689 40.1901C79.0278 39.6357 79.081 38.6943 79.0863 37.847C79.0863 36.9945 79.0384 36.053 78.4796 35.4987H78.4689Z" fill="#708E41"/>
<path d="M87.5597 41.659L87.5757 36.9833C87.5757 35.6443 86.8412 34.9592 85.6756 34.9592C84.51 34.9592 83.7595 35.6496 83.7542 36.978L83.7435 41.6538H82.6099L82.6311 34.0544H83.7648V34.8912C84.313 34.2741 85.0635 33.9707 85.9311 33.9707C86.7614 33.9707 87.4373 34.2218 87.911 34.6872C88.4592 35.2155 88.7094 35.9268 88.7094 36.8054L88.6934 41.6694H87.5597V41.659Z" fill="#708E41"/>
<path d="M100.296 41.6903L100.312 37.0146C100.312 35.6704 99.5722 34.9905 98.4119 34.9905C97.2463 34.9905 96.4958 35.6809 96.4905 37.0041L96.4799 41.6851H95.3462L95.3622 34.0857H96.4958V34.9225C97.0441 34.3054 97.7945 33.9968 98.6621 34.002C99.4924 34.002 100.168 34.2531 100.637 34.7133C101.185 35.2416 101.44 35.9529 101.435 36.8315L101.424 41.6955H100.291L100.296 41.6903Z" fill="#708E41"/>
<path d="M108.562 41.7118V40.9848C107.929 41.602 107.365 41.8007 106.327 41.8007C105.257 41.8007 104.629 41.5967 104.145 41.0999C103.767 40.7285 103.57 40.1585 103.57 39.557C103.57 38.2285 104.517 37.3656 106.242 37.3708H108.562V36.649C108.562 35.5403 108.003 34.9806 106.593 34.9806C105.598 34.9806 105.097 35.2055 104.64 35.8384L103.873 35.1428C104.57 34.2641 105.348 34.0183 106.614 34.0235C108.685 34.0235 109.707 34.9126 109.701 36.5654L109.685 41.7223H108.557L108.562 41.7118ZM108.562 38.2024H106.396C105.236 38.2024 104.666 38.6574 104.666 39.5361C104.666 40.4147 105.209 40.8384 106.433 40.8384C107.099 40.8384 107.673 40.7965 108.163 40.331C108.429 40.0852 108.557 39.6511 108.557 39.0235V38.2024H108.562Z" fill="#708E41"/>
<path d="M114.603 41.7217C113.283 41.7217 112.628 40.8064 112.628 39.682L112.639 35.0219H111.665V34.1694H112.639L112.65 31.7949H113.778V34.1746H115.423V35.0271H113.773L113.762 39.6558C113.762 40.3514 114.087 40.7698 114.805 40.7698H115.407V41.7269H114.603V41.7217Z" fill="#708E41"/>
<path d="M122.534 41.7426V40.8901C121.98 41.5073 121.209 41.8316 120.346 41.8263C119.516 41.8263 118.824 41.5753 118.35 41.1098C117.802 40.5816 117.568 39.8598 117.573 38.9759L117.584 34.1328H118.718L118.707 38.8085C118.696 40.1527 119.42 40.8326 120.586 40.8378C121.746 40.8378 122.518 40.1475 122.523 38.819L122.534 34.1433H123.662L123.646 41.7374H122.534V41.7426Z" fill="#708E41"/>
<path d="M130.81 35.6132C130.384 35.1948 130.07 35.0588 129.474 35.0536C128.346 35.0536 127.622 35.927 127.617 37.0881L127.601 41.7534H126.472L126.488 34.154H127.622V35.085C128.042 34.4521 128.894 34.0703 129.793 34.0703C130.528 34.0703 131.092 34.2429 131.64 34.7816L130.81 35.6132Z" fill="#708E41"/>
<path d="M133.801 38.2589C133.796 39.9274 134.594 40.8845 136.074 40.8897C136.963 40.8897 137.49 40.6334 138.096 40.0267L138.868 40.691C138.081 41.465 137.362 41.8625 136.037 41.8625C133.998 41.8625 132.662 40.6491 132.673 37.9661C132.673 35.5079 133.886 34.0801 135.85 34.0801C137.846 34.0801 139.023 35.5079 139.017 37.7621V38.2746L133.801 38.2589ZM137.655 36.1721C137.362 35.4765 136.67 35.0267 135.85 35.0267C135.036 35.0267 134.344 35.4713 134.046 36.1669C133.876 36.5853 133.844 36.8154 133.812 37.4326L137.894 37.443C137.862 36.8259 137.83 36.5958 137.655 36.1774V36.1721Z" fill="#708E41"/>
<path d="M15.8396 1.28138C14.3494 0.42887 12.6089 0 10.6609 0C7.33435 0 4.70506 1.14017 2.85816 3.38389C0.963365 5.68515 0 8.96444 0 13.1381C0 17.887 1.12836 21.6004 3.34783 24.1789C4.15684 25.1046 5.1894 25.8525 6.41357 26.3912C7.63773 26.9247 8.93641 27.1967 10.2723 27.1967C12.5237 27.1967 14.6261 26.4801 16.5103 25.0628C17.3033 24.4665 18.0538 23.7186 18.7404 22.84L18.767 22.8033V19.0377L18.5115 19.4038C17.2927 21.1402 15.9833 22.4739 14.6155 23.3682C13.2529 24.2573 11.8318 24.7071 10.3841 24.7071C9.4793 24.7071 8.58513 24.5136 7.73886 24.1266C6.48276 23.5408 5.50875 22.7197 4.85408 21.6893C3.4596 19.4979 2.75171 16.6056 2.75171 13.0858C2.75171 11.3546 2.97526 9.75418 3.41702 8.33159C3.85878 6.909 4.48683 5.74791 5.2852 4.87448C6.65308 3.39435 8.484 2.64121 10.7354 2.64121C12.4386 2.64121 14.0247 3.18515 15.4405 4.26255C16.457 5.02092 17.4896 6.1454 18.5115 7.62029L18.767 7.9864V3.73954L18.7297 3.6977C17.5907 2.54707 16.6167 1.73117 15.8343 1.28138H15.8396Z" fill="#1D1D1B"/>
<path d="M36.0223 0.873995C34.713 0.309141 33.2972 0.0214844 31.8176 0.0214844C28.4751 0.0214844 25.8458 1.15642 23.9936 3.40015C22.0722 5.73801 21.0981 9.11144 21.0981 13.4263C21.0981 18.2014 22.3489 21.9096 24.8185 24.4357C26.6175 26.2663 28.9062 27.1972 31.6206 27.1972C34.3351 27.1972 36.528 26.3342 38.3216 24.6345C40.9616 22.1292 42.3028 18.2746 42.3028 13.1805C42.3028 8.90224 41.3075 5.57588 39.3435 3.29031C38.4547 2.25998 37.3316 1.44931 36.0223 0.879225V0.873995ZM35.9585 23.2328C34.6651 24.2056 33.228 24.6972 31.6792 24.6972C30.7158 24.6972 29.7844 24.4932 28.9115 24.0958C27.8098 23.6093 26.8943 22.8876 26.1811 21.9566C24.5844 19.8384 23.77 16.92 23.77 13.2903C23.77 8.83947 24.909 5.74847 27.1604 4.09575C28.4804 3.13341 29.9867 2.64701 31.6366 2.64701C34.4575 2.64701 36.5652 3.72441 37.9065 5.8583C39.0455 7.67839 39.6203 10.1993 39.6203 13.3478C39.6203 18.0811 38.3855 21.4075 35.9531 23.2328H35.9585Z" fill="#1D1D1B"/>
<path d="M60.7879 1.28138C59.2977 0.42887 57.5572 0 55.6092 0C52.2773 0 49.6534 1.14017 47.8065 3.38389C45.9117 5.68515 44.9483 8.96967 44.9483 13.1433C44.9483 17.887 46.0767 21.6056 48.2961 24.1841C49.1051 25.1098 50.1377 25.8577 51.3619 26.3912C52.586 26.9247 53.8847 27.1967 55.2207 27.1967C57.4721 27.1967 59.5744 26.4801 61.4586 25.0628C62.2569 24.4613 63.0074 23.7134 63.6887 22.84L63.7153 22.8033V19.0377L63.4598 19.4038C62.241 21.1402 60.9317 22.4739 59.5638 23.3682C58.2012 24.2573 56.7801 24.7071 55.3324 24.7071C54.4276 24.7071 53.5334 24.5136 52.6872 24.1266C51.4311 23.5408 50.4571 22.7197 49.8024 21.6893C48.4079 19.5031 47.6947 16.6056 47.6947 13.0858C47.6947 11.3598 47.9182 9.75941 48.36 8.33159C48.8018 6.909 49.4298 5.74268 50.2282 4.87448C51.5961 3.39435 53.4323 2.64121 55.6837 2.64121C57.3869 2.64121 58.9677 3.18515 60.3888 4.26255C61.4 5.01569 62.4326 6.1454 63.4598 7.62029L63.7153 7.9864V3.73954L63.678 3.6977C62.5444 2.54707 61.5703 1.73117 60.7826 1.28138H60.7879Z" fill="#1D1D1B"/>
<path d="M80.9759 0.873995C79.6613 0.309141 78.2508 0.0214844 76.7712 0.0214844C73.4287 0.0214844 70.7994 1.15642 68.9472 3.40015C67.0258 5.73801 66.0518 9.11144 66.0518 13.4263C66.0518 18.2014 67.3025 21.9043 69.7722 24.4357C71.5711 26.2663 73.8598 27.1972 76.5743 27.1972C79.2887 27.1972 81.4816 26.3342 83.2752 24.6345C85.9152 22.124 87.2511 18.2746 87.2511 13.1805C87.2511 8.90224 86.2558 5.57588 84.2918 3.29031C83.403 2.25998 82.2853 1.44931 80.9706 0.879225L80.9759 0.873995ZM80.9121 23.2328C79.6187 24.2056 78.1816 24.6972 76.6328 24.6972C75.6694 24.6972 74.738 24.4932 73.8651 24.0958C72.7634 23.6093 71.8479 22.8876 71.1347 21.9566C69.538 19.8332 68.7236 16.92 68.7236 13.2903C68.7236 8.83947 69.8626 5.74847 72.114 4.09575C73.434 3.13341 74.9403 2.64701 76.5902 2.64701C79.4111 2.64701 81.5188 3.72441 82.8601 5.8583C83.9991 7.67839 84.5739 10.1993 84.5739 13.3478C84.5739 18.0811 83.3391 21.4075 80.9067 23.2328H80.9121Z" fill="#1D1D1B"/>
<path d="M99.2744 14.8008H90.5615V17.6407H99.2744V14.8008Z" fill="#1D1D1B"/>
<path d="M115.955 23.4672C115.892 23.6346 115.838 23.7967 115.796 23.9431C115.689 23.6346 115.572 23.2998 115.439 22.9546L107.695 0.402344H103.655V26.8092H106.375L106.141 5.72661V3.96406C106.253 4.33017 106.343 4.62305 106.412 4.85318L114.071 26.7151L114.103 26.8092H117.361L124.977 5.07808L125.227 4.33017C125.227 4.33017 125.238 4.28833 125.243 4.27264L125.03 26.6733V26.8145H127.729V0.402344H123.785L115.961 23.4724L115.955 23.4672Z" fill="#1D1D1B"/>
<path d="M143.972 0.403668H140.263L130.89 26.8158H133.801L136.819 18.1652H147.453L150.476 26.8158H153.308L144.004 0.49258L143.972 0.398438V0.403668ZM146.5 15.5344H137.718L142.099 2.92459L146.5 15.5344Z" fill="#1D1D1B"/>
<path d="M151.509 0.402344V3.16908H159.945V26.8092H162.623V3.16908H171V0.402344H151.509Z" fill="#1D1D1B"/>
</svg>
